<?xml version="1.0" encoding="UTF-8"?> <!-- Generator: Adobe Illustrator 25.2.1, SVG Export Plug-In . SVG Version: 6.00 Build 0) --> <svg xmlns="http://www.w3.org/2000/svg" xmlns:xlink="http://www.w3.org/1999/xlink" version="1.1" id="レイヤー_1" x="0px" y="0px" viewBox="0 0 300 60" xml:space="preserve"> <g> <g> <path fill="#231815" d="M70.7,42l0-0.8l0.1-0.1l0.6,0l0.6,0l0.6,0l0.6,0l0.6,0l0.6,0l0.6,0h0.6l0.6,0.1l0.6,0l0.6-0.1l0.2,0.2 L77.4,42l-0.1,0.1h-0.7l-0.7,0l-0.7,0.1l-0.7-0.1l0.1,0.6l0,0.6l0,0.6l0,0.6l0,0.6l0,0.6l0,0.6l0.1,0.6l0,0.6l0,0.6l-0.2,0.2 l-0.8,0l-0.1-0.1l0-0.6V47l0-0.6l0-0.6l0-0.6l0-0.6l0-0.6l0-0.6l0-0.6l0-0.6l-0.7,0l-0.7,0l-0.7,0l-0.7,0L70.7,42z"></path> </g> <g> <path fill="#231815" d="M93.6,47.3l0.2,0.2l0,0.7l-0.1,0.1l-0.6,0l-0.6,0.1l-0.6,0l-0.6,0l-0.6,0l-0.6,0l-0.6,0.1L89,48.4 l-0.6,0.1l-0.6,0l-0.6,0l-0.1-0.1l0-0.6l0-0.6l0-0.6l0-0.6l0-0.6l0-0.6l0-0.6l0-0.6l0-0.6l0-0.6l0-0.6l0.1-0.6l0.1-0.2l0.6,0 l0.6,0l0.6-0.1l0.6,0l0.6,0l0.6,0.1h0.6l0.6-0.1l0.6,0l0.6,0.1l0.6,0l0.1,0.2l0,0.8l-0.1,0.1L93,42.2l-0.6,0l-0.6,0l-0.6,0l-0.6,0 L90,42.1l-0.6,0l-0.6,0.1l-0.6,0l0,0.7l0,0.7l0,0.7h0.6l0.6,0l0.6-0.1l0.6,0l0.6,0l0.6,0l0.6,0l0.2,0.1l-0.1,0.8l-0.1,0.2l-0.6,0 l-0.6,0l-0.6,0l-0.6,0l-0.6,0l-0.6,0.1l-0.6,0l0,0.7l0,0.7v0.7l0.6,0l0.6,0l0.6,0l0.6,0l0.6,0l0.6,0l0.6,0l0.6,0L93.6,47.3z"></path> </g> <g> <path fill="#231815" d="M110.7,46.5l0.1,0.1l-0.3,0.5l-0.4,0.4l-0.5,0.3l-0.5,0.2l-0.5,0.2l-0.6,0.1l-0.6,0l-0.6-0.1l-0.6,0 l-0.6-0.2l-0.5-0.3l-0.5-0.4l-0.4-0.4l-0.3-0.5l-0.2-0.6l-0.1-0.6l-0.1-0.6l0-0.6l0.2-0.6l0.2-0.6l0.3-0.5l0.4-0.5l0.5-0.3 l0.6-0.2l0.6-0.2l0.6-0.1l0.6,0h0.6l0.6,0.1l0.6,0.2l0.5,0.3l0.5,0.3l0.4,0.4l0.4,0.5l-0.1,0.2l-0.7,0.3l-0.2-0.1l-0.4-0.5 l-0.5-0.3l-0.5-0.3l-0.6-0.1l-0.6,0l-0.6,0l-0.6,0.1l-0.6,0.3L105,43l-0.4,0.5l-0.2,0.6l0,0.6l0,0.6l0.2,0.6l0.4,0.5l0.4,0.4 l0.6,0.3l0.6,0.1l0.6,0l0.6-0.1l0.6-0.1l0.6-0.2l0.4-0.4l0.4-0.4l0.2-0.1L110.7,46.5z"></path> </g> <g> <path fill="#231815" d="M121.9,44.2l0.6,0l0.6,0l0.6,0.1l0.6,0l0.6,0l0.6,0l0.6,0l0.6,0l0-0.6l-0.1-0.6l0-0.6l0-0.6l0-0.6l0.2-0.1 l0.8-0.1l0.2,0.2l-0.1,0.6l0.1,0.6l0,0.6l0,0.6l0,0.6l0,0.6l0,0.6l0,0.6l0,0.6l0,0.6l0,0.6l-0.1,0.6l-0.1,0.1l-0.8,0.1l-0.2-0.2 l0-0.6l0-0.6l0-0.6l0-0.6l0-0.6l-0.6,0l-0.6,0l-0.6,0l-0.6,0l-0.6,0l-0.6,0l-0.6,0l-0.6,0l0,0.6l0,0.6l0,0.6l-0.1,0.6l0,0.6 l-0.1,0.2l-0.7,0l-0.1-0.1l0-0.6l0-0.6l0-0.6l0-0.6l0.1-0.6l-0.1-0.6l0-0.6l0-0.6l0-0.6l0-0.6v-0.6l0-0.6l0.2-0.1l0.7,0l0.2,0.1 l0,0.6l0.1,0.6l-0.1,0.6l0,0.6L121.9,44.2z"></path> </g> <g> <path fill="#231815" d="M138.1,48.4l-0.1-0.1l-0.1-0.6l0-0.6l0-0.6l0-0.6l0-0.6v-0.6l0-0.6l-0.1-0.6L138,43l-0.1-0.6l0-0.6l0-0.6 l0.2-0.2l0.8,0l0.2,0.2l0.4,0.4l0.3,0.5l0.4,0.4l0.4,0.4l0.3,0.5l0.4,0.4l0.4,0.4l0.3,0.5l0.4,0.5l0.4,0.4l0.4,0.5l0.4,0.5l0-0.6 l0-0.6l0-0.6l0-0.6l0-0.6l0-0.6l-0.1-0.6l0-0.6l0-0.6l0.2-0.1l0.8,0l0.2,0.1l-0.1,0.6l0.1,0.6l0,0.6l0,0.6l0,0.6l0,0.6l0,0.6 l0,0.6l-0.1,0.6l0,0.6l-0.1,0.6l0,0.6l-0.1,0.2l-0.8,0l-0.2-0.1l-0.4-0.5l-0.4-0.5l-0.3-0.5l-0.4-0.4l-0.4-0.5l-0.4-0.5l-0.4-0.4 l-0.3-0.5l-0.4-0.4l-0.4-0.5l-0.4-0.5l-0.4-0.5l0,0.6l0,0.6l0,0.6l0,0.6l0,0.6l0,0.6l0,0.6l0,0.6l0,0.6l-0.2,0.2L138.1,48.4z"></path> </g> <g> <path fill="#231815" d="M162.5,44.7l0,0.6l-0.1,0.6l-0.2,0.6l-0.3,0.5l-0.4,0.5l-0.5,0.3l-0.5,0.3l-0.6,0.2l-0.6,0l-0.6,0l-0.6,0 l-0.6-0.1l-0.6-0.1l-0.5-0.3l-0.5-0.4l-0.5-0.4l-0.3-0.5l-0.2-0.6l-0.1-0.6l0-0.6l0-0.6l0.1-0.6l0.3-0.6l0.3-0.5l0.4-0.5l0.5-0.3 l0.5-0.3l0.6-0.1L158,41l0.6,0l0.6,0l0.6,0.1l0.6,0.2l0.6,0.2l0.5,0.4l0.4,0.5l0.3,0.5l0.3,0.6l0.1,0.6L162.5,44.7z M161.5,44.7 l-0.1-0.6l-0.2-0.6l-0.3-0.5l-0.5-0.4l-0.6-0.3l-0.6-0.2l-0.6,0l-0.6,0.1l-0.6,0.1l-0.6,0.3l-0.5,0.4l-0.3,0.5l-0.2,0.6l-0.1,0.6 l0,0.6l0.3,0.6l0.3,0.5l0.5,0.4l0.6,0.2l0.6,0.2l0.6,0l0.6-0.1l0.6-0.1l0.6-0.3l0.5-0.4l0.4-0.5l0.1-0.6L161.5,44.7z"></path> </g> <g> <path fill="#231815" d="M172.7,48.4l-0.2-0.2l0-0.6l0-0.6l-0.1-0.6l0-0.6l0-0.6l0-0.6l0.1-0.6l-0.1-0.6l0-0.6l0-0.6l0.1-0.6l0-0.6 l0.1-0.1l0.7-0.1l0.2,0.2l0,0.6l0,0.6l-0.1,0.6l0.1,0.6l0,0.6l0,0.6l0,0.6l-0.1,0.6l0,0.6l0,0.6l0.6,0l0.6,0l0.6,0l0.6,0l0.6,0 l0.6,0l0.2,0.2l0,0.7l-0.2,0.1l-0.6,0h-0.6l-0.6,0l-0.6,0l-0.6,0l-0.6,0l-0.6,0L172.7,48.4z"></path> </g> <g> <path fill="#231815" d="M194.8,44.7l-0.1,0.6l-0.1,0.6l-0.3,0.5l-0.3,0.5l-0.4,0.4l-0.5,0.4l-0.5,0.3l-0.6,0.2l-0.6,0.1l-0.6,0.1 l-0.6-0.1l-0.6-0.1l-0.6-0.2l-0.5-0.3l-0.5-0.3l-0.4-0.5l-0.4-0.5l-0.2-0.6l-0.1-0.6l0-0.6l0-0.6l0.2-0.6l0.2-0.6l0.3-0.5L188,42 l0.5-0.3l0.5-0.3l0.6-0.2l0.6-0.1l0.6,0l0.6,0l0.6,0.1l0.6,0.2l0.6,0.3l0.5,0.4l0.4,0.5l0.4,0.5l0.2,0.6l0.1,0.6L194.8,44.7z M193.7,44.7l0-0.6l-0.2-0.6l-0.3-0.6l-0.5-0.4l-0.6-0.3l-0.6-0.1l-0.6,0l-0.6,0.1l-0.6,0.1l-0.6,0.3l-0.5,0.4l-0.3,0.5l-0.2,0.6 l-0.1,0.6l0.1,0.6l0.1,0.6l0.4,0.5l0.5,0.4l0.6,0.3l0.6,0.2l0.6,0l0.6,0l0.6-0.2l0.6-0.2l0.5-0.4l0.4-0.5l0.2-0.6L193.7,44.7z"></path> </g> <g> <path fill="#231815" d="M210.7,42.7l-0.2,0l-0.5-0.3l-0.5-0.2l-0.6-0.1l-0.6,0l-0.6,0l-0.6,0.1l-0.6,0.3l-0.5,0.4l-0.3,0.5 l-0.2,0.6l0,0.6l0,0.6l0.2,0.6l0.3,0.6l0.5,0.4l0.6,0.2l0.6,0.2l0.6,0l0.6,0l0.6-0.1l0.5-0.2l0.4-0.4l0.4-0.4l0-0.5l0-0.5l-0.6,0 l-0.7,0l-0.7,0l-0.2-0.2l0-0.8l0.1-0.1l0.6,0l0.6,0l0.6,0l0.6,0l0.6,0l0.1,0.2l0,0.7l0.1,0.7l0,0.7l0,0.3l-0.4,0.4l-0.4,0.4 l-0.5,0.3l-0.5,0.3l-0.6,0.1l-0.6,0.1l-0.6,0l-0.6,0l-0.6-0.1l-0.6-0.2l-0.5-0.3l-0.5-0.4l-0.5-0.4l-0.3-0.5l-0.2-0.6l-0.2-0.6 l0-0.6l0.1-0.6l0.1-0.6l0.2-0.6l0.3-0.5l0.4-0.5l0.5-0.4l0.5-0.3l0.6-0.2l0.6,0l0.6-0.1l0.6,0l0.6,0.1l0.6,0.1l0.5,0.3l0.5,0.3 l0,0.2L210.7,42.7z"></path> </g> <g> <path fill="#231815" d="M224.5,48.4l-0.2-0.1l0-0.7l0-0.7l0-0.7l-0.6-0.1l-0.6-0.2l-0.5-0.3l-0.5-0.4l-0.3-0.5l-0.2-0.6l-0.2-0.6 l0-0.6l0-0.6l0-0.6l0-0.6l0.1-0.2l0.8,0l0.1,0.2l0,0.6l0,0.6l-0.1,0.6l0.1,0.6l0.2,0.6l0.4,0.5l0.5,0.3l0.6,0.1l0.6,0.1l0.6,0 L226,45l0.5-0.3l0.4-0.5l0.2-0.6l0.1-0.6l-0.1-0.6l0-0.6v-0.6l0.2-0.1l0.7,0l0.1,0.1l0,0.6l0,0.6l0,0.6l0,0.6l-0.2,0.6l-0.2,0.6 l-0.4,0.5l-0.5,0.4l-0.5,0.3l-0.5,0.2l-0.6,0.1l0,0.7l0,0.7l0,0.7l-0.1,0.1L224.5,48.4z"></path> </g> </g> <g> <g> <path fill="#231815" d="M75.8,21.5l0.7,0l0.6,0l0.6,0.1l0.6-0.1l0.6-0.1l0.6,0.1l0.6,0l0.3-0.5l0.4-0.4l0.4-0.5l0.4-0.5l0.4-0.4 l0.4-0.4l0.2-0.6l0.4-0.4l0.3-0.5l0.4-0.5l0.3-0.5l0.3-0.5l0.5-0.4l0.3-0.5l0.4-0.5l0.5-0.4l0.4-0.4l0.2-0.6l0.6-0.2l0.5-0.3 l0.6-0.1l0.6,0l0.6,0l0.6,0.2l0.6-0.1l0.6-0.1l0.6,0.1l0.6-0.1l0.2,0.5l-0.2,0.6L91.9,14l-0.4,0.4l-0.3,0.5l-0.5,0.4l-0.3,0.5 l-0.3,0.6l-0.4,0.4l-0.4,0.5L89,17.7l-0.5,0.3l-0.2,0.6l-0.3,0.5l-0.5,0.4L87,20l-0.3,0.5l-0.5,0.4L86,21.6L85.6,22l-0.3,0.5 l-0.6,0.3l-0.2,0.6l-0.6,0.4l0.5,0.4l0.3,0.5l0.4,0.4l0.4,0.4l0.2,0.6l0.5,0.3l0.2,0.6l0.4,0.4l0.3,0.5l0.4,0.4l0.3,0.5l0.3,0.6 l0.4,0.5l0.6,0.3l0.6,0.3l0.7-0.1l0.6,0.1l0.7-0.1l0.4,0.3l0.1,0.4l0.2,0.6l-0.1,0.6l-0.1,0.6l0,0.6l0.2,0.6l-0.3,0.4l-0.4,0.3 l-0.6-0.3l-0.6,0L90,35l-0.6,0l-0.6-0.2l-0.6-0.1l-0.6-0.2L87,34.3L86.5,34l-0.5-0.3l-0.6-0.3L85,33l-0.4-0.5l-0.5-0.4l-0.5-0.4 l-0.2-0.6L83,30.6l-0.3-0.5l-0.4-0.5L82,29.1l-0.3-0.5l-0.3-0.5l-0.3-0.5l-0.4-0.4l-0.3-0.6L80,26l-0.7,0.1L78.8,26l-0.6,0.1 l-0.6,0.1L77,26.1l-0.6,0.1l-0.6,0l0,0.6l-0.1,0.6l0.1,0.6l0,0.6l0,0.6l0.1,0.6l-0.2,0.6l0,0.6l0,0.6l0.2,0.6l0,0.6l-0.1,0.6 l-0.1,0.6l0,0.6l-0.1,0.5l-0.5,0.1l-0.6-0.1L74,35l-0.6-0.2L72.8,35l-0.6,0l-0.6-0.1l-0.5,0l0-0.5L71,33.7l0.1-0.6l0-0.6l-0.2-0.6 l0.1-0.6l0-0.6l0-0.6l-0.1-0.6l0-0.6l0-0.6l0-0.6l0.1-0.6l0.1-0.6l0.1-0.6l-0.2-0.6l0-0.6l0.2-0.6l0.1-0.6L71,22.9l0.1-0.6l0-0.6 l-0.1-0.6l-0.1-0.6l0.1-0.6l-0.2-0.6l0.3-0.6L71,18L71,17.4l0-0.6l0.1-0.6L71,15.6l0-0.6l0.2-0.6l-0.1-0.6L71,13.2l0.3-0.3 l0.3-0.3l0.6-0.1l0.6,0.3l0.6,0l0.6,0l0.6,0l0.6,0l0.4,0.1l0.2,0.4l0,0.6l0.1,0.6l-0.1,0.6l-0.1,0.6l0.1,0.6l-0.1,0.6l0.2,0.6 l-0.1,0.6l0,0.6l-0.1,0.6l0.2,0.6l0,0.6l-0.2,0.6L75.8,21.5z"></path> </g> <g> <path fill="#231815" d="M121.4,30.2l0.4,0.2l0.2,0.4l0,0.6l0.1,0.6l0.1,0.6l0,0.6l-0.2,0.6l0.2,0.6l-0.3,0.4l-0.4,0.2l-0.6,0 l-0.6,0l-0.6,0l-0.6-0.1l-0.6,0.1l-0.6-0.2l-0.6,0l-0.6,0l-0.6,0l-0.6,0l-0.6-0.1l-0.6,0.1l-0.6,0.1l-0.6-0.2l-0.6,0.1l-0.6,0 l-0.6,0l-0.6-0.1l-0.6,0l-0.6,0.1l-0.6,0l-0.6-0.2l-0.6,0.2l-0.6-0.2l-0.6,0l-0.6,0.1l-0.6,0l-0.6,0l-0.6,0l-0.6,0.1l-0.6-0.2 l-0.6,0.1l-0.4-0.2l-0.1-0.4l0-0.6l-0.1-0.6l0-0.6l0.3-0.6l-0.2-0.6v-0.6l0-0.6l0.1-0.6l0-0.6l-0.1-0.6l0.1-0.6l0.1-0.6l-0.1-0.6 l0.1-0.6l-0.1-0.6l-0.1-0.6l0.1-0.6l0.2-0.6l0-0.6l-0.1-0.6l0-0.6l-0.2-0.6l0.1-0.6l-0.1-0.6l0-0.6l0-0.6l0-0.6l0.2-0.6l-0.2-0.6 l-0.1-0.6l0.2-0.6l-0.2-0.6l0-0.6l0.2-0.6l-0.2-0.6l0.4-0.4l0.4-0.3l0.6,0.2l0.6-0.1l0.6,0l0.6,0l0.6-0.2l0.6,0.1l0.6,0l0.6,0 l0.6,0.2l0.6,0l0.6-0.2l0.6,0.2l0.6-0.1l0.6-0.1l0.6,0.1l0.6,0l0.6-0.1l0.6-0.1l0.6,0.2l0.6,0l0.6-0.1l0.6,0l0.6,0l0.6-0.2 l0.6,0.2l0.6-0.1l0.6,0l0.6,0l0.6,0.1l0.6-0.1l0.6,0l0.6,0l0.4,0.2l0.3,0.4l0,0.6l0,0.6L122,15l0,0.6l0.1,0.6l0,0.6l-0.3,0.4 l-0.4,0.2l-0.6,0l-0.6,0l-0.6,0.1l-0.6-0.1l-0.6-0.1l-0.6-0.1l-0.6,0.2l-0.6-0.1l-0.6,0.1l-0.6,0.1l-0.6-0.2l-0.6,0.2l-0.6-0.1 l-0.6,0l-0.6,0l-0.6-0.1l-0.6,0l-0.6,0.1l-0.6,0.1l-0.6,0l-0.6,0l-0.6-0.2l-0.6,0l-0.6,0.2l-0.5,0l0,0.5l-0.1,0.6l0.1,0.6 l-0.2,0.6l0,0.6l0,0.6l0,0.6l0.6-0.1l0.6,0.1l0.6-0.1l0.6-0.1l0.6,0.1l0.6,0l0.6-0.1l0.6-0.1l0.6,0.2l0.6,0l0.6-0.2l0.6,0l0.6,0 l0.6,0.1l0.6-0.1l0.6,0l0.6,0l0.6,0l0.6,0.1l0.3,0.2l0.3,0.3l-0.1,0.6l0.1,0.6l-0.1,0.6l-0.1,0.6l0.2,0.6l-0.1,0.6l-0.1,0.4 l-0.4,0.1l-0.6,0.2l-0.6-0.2L116,26l-0.6,0l-0.6,0.1l-0.6,0.1l-0.6-0.2L113,26l-0.6,0.2l-0.6,0.1l-0.6,0.1l-0.6-0.3l-0.6,0l-0.6,0 l-0.6,0.1l-0.6-0.1l-0.6,0.2l-0.6-0.2l-0.6,0.1l-0.1,0.6v0.6l0,0.6l0,0.6l0.1,0.6l0.1,0.6l0,0.5l0.6,0.1h0.6l0.6-0.2l0.6,0 l0.6,0.2l0.6,0l0.6-0.2l0.6,0l0.6-0.1h0.6l0.6,0l0.6,0l0.6,0.1l0.6,0l0.6-0.1l0.6,0l0.6,0.1l0.6-0.1l0.6,0.2l0.6-0.1h0.6l0.6,0 l0.6-0.1l0.6,0L121.4,30.2z"></path> </g> <g> <path fill="#231815" d="M131,34.9l-0.5-0.1l-0.2-0.5l0.1-0.6l0.1-0.6l-0.2-0.6l0.1-0.6l-0.1-0.6l-0.1-0.6l0.1-0.6l0-0.6l-0.1-0.6 l0.1-0.6l0-0.6l0.1-0.6l0-0.6l0.1-0.6l-0.3-0.6l0.1-0.6l0.1-0.6l-0.1-0.6l0-0.6l0.1-0.6l-0.1-0.6l-0.1-0.6l0.2-0.6l-0.2-0.6 l0.1-0.6l0-0.6l-0.1-0.6l0.1-0.6l0-0.6l-0.1-0.6l-0.1-0.6l0.1-0.6l-0.1-0.6l0-0.6l0.2-0.6l0-0.5l0.5,0l0.6-0.2l0.6,0.1l0.6,0 l0.6,0l0.6,0.1l0.6-0.3l0.5,0.3l0.4,0.4l0.4,0.4l0.3,0.5l0.3,0.5l0.2,0.6l0.4,0.4l0.5,0.4l0.2,0.6l0.5,0.4l0.3,0.5l0.2,0.6 l0.3,0.5l0.5,0.4l0.2,0.6l0.4,0.4l0.4,0.5l0.3,0.5l0.2,0.6l0.4,0.5l0.2,0.6l0.4,0.3l0.2-0.4l0.5-0.4l0.3-0.5l0.3-0.5l0.4-0.4 l0.3-0.5l0.1-0.6l0.4-0.4l0.2-0.5l0.4-0.5l0.4-0.4l0.2-0.5l0.4-0.5l0.2-0.5l0.3-0.5l0.4-0.5l0.4-0.4l0.2-0.6l0.4-0.4l0.3-0.5 l0.4-0.4l0.5-0.3l0.6,0.1l0.6-0.1l0.6,0.2l0.6-0.2l0.6,0l0.6,0l0.3,0.4l0.3,0.3l-0.1,0.6l0.1,0.6l-0.2,0.6l0.1,0.6l0.1,0.6l0,0.6 l-0.1,0.6l0.1,0.6l0.1,0.6l-0.2,0.6l0,0.6l0,0.6l0.3,0.6l-0.2,0.6l0.1,0.6l0.1,0.6l-0.1,0.6l0.1,0.6l-0.2,0.6l0,0.6l0.2,0.6 l-0.1,0.6l0,0.6l-0.1,0.6l0.1,0.6l-0.1,0.6l0.1,0.6l-0.1,0.6l0.2,0.6l-0.2,0.6l0,0.6l0.2,0.6l-0.2,0.6l-0.1,0.6l0.1,0.6l-0.3,0.4 l-0.4,0.3l-0.6-0.1l-0.6,0l-0.6-0.1l-0.6,0.1l-0.6-0.1l-0.6-0.1l-0.4-0.2l-0.1-0.4l-0.1-0.6l0.1-0.6l-0.2-0.6l0-0.6l0.2-0.6l0-0.6 l-0.2-0.6l0.3-0.6l0-0.6l-0.1-0.6l-0.1-0.6l0-0.6l0-0.6l0.1-0.6l0-0.6l0-0.6l-0.1-0.6l0-0.6l0.1-0.6l0.1-0.6l-0.1-0.6l-0.1-0.6 l0.1-0.5l-0.3,0.4l-0.3,0.6l-0.5,0.4l-0.4,0.5l-0.3,0.5l-0.2,0.6l-0.5,0.4l-0.3,0.5l-0.3,0.6l-0.4,0.5l-0.3,0.6l-0.2,0.6l-0.4,0.5 l-0.4,0.5l-0.3,0.5l-0.2,0.6l-0.5,0.2l-0.5,0.3l-0.8,0l-0.6-0.1l-0.3-0.5l-0.4-0.5L140,28l-0.4-0.5l-0.4-0.5l-0.1-0.6l-0.4-0.5 l-0.4-0.5l-0.2-0.6l-0.5-0.4l-0.4-0.5l-0.2-0.6l-0.2-0.6l-0.5-0.4l-0.3-0.6l-0.5-0.4l-0.2-0.6l0,0.6l0,0.6l0.1,0.6l-0.1,0.6 l-0.2,0.6l0.3,0.6l-0.2,0.6l0,0.6l0,0.6l0,0.6l0.1,0.6l-0.1,0.6l0.1,0.6l0.2,0.6l-0.2,0.6l0,0.6l0.1,0.6l-0.1,0.6l0,0.6l0.1,0.6 l0,0.6l0.1,0.6l0,0.6l-0.3,0.4l-0.5,0.2l-0.6,0.2l-0.6-0.3l-0.6,0.2l-0.6,0l-0.6,0L131,34.9z"></path> </g> <g> <path fill="#231815" d="M180.1,13.2l0.2-0.4l0.4-0.3l0.6,0.1l0.6,0l0.6,0l0.6,0l0.6-0.2l0.6,0l0.3,0.3l0.2,0.3l0.1,0.6l-0.1,0.6 l0.1,0.6l0,0.6l0.1,0.6l-0.2,0.6l0.2,0.6l-0.2,0.6l0.1,0.6v0.6l0.1,0.6l-0.2,0.6l0,0.6l0.3,0.6l0,0.6l-0.1,0.6l-0.2,0.6l0.2,0.6 l-0.1,0.6l0.1,0.6l-0.2,0.6l-0.1,0.6l-0.1,0.6l-0.1,0.6l-0.2,0.6l-0.2,0.5l-0.1,0.6l-0.3,0.5l-0.2,0.6l-0.5,0.4l-0.3,0.5l-0.3,0.5 l-0.6,0.3l-0.4,0.5l-0.5,0.3l-0.5,0.3l-0.5,0.3l-0.5,0.4l-0.5,0.3l-0.6,0.2l-0.6,0l-0.6,0.2l-0.6,0l-0.6,0.1l-0.6,0.2l-0.6,0.1 l-0.6,0.1l-0.6-0.3l-0.6,0.1l-0.6-0.1l-0.6-0.1l-0.6-0.2l-0.5-0.3l-0.6,0.1l-0.6-0.2l-0.5-0.4l-0.6-0.2l-0.6-0.2l-0.5-0.4 l-0.4-0.5l-0.6-0.2l-0.3-0.6l-0.4-0.4L165,31l-0.3-0.5l-0.4-0.5l-0.3-0.5l-0.3-0.6l-0.2-0.6l-0.2-0.6l0.1-0.6l-0.3-0.6l0.1-0.6 l-0.2-0.6l0.1-0.6l-0.1-0.6l0-0.6l0-0.6l-0.1-0.6l0.2-0.6l0-0.6l0-0.6l-0.2-0.6l0-0.6l0.1-0.6l0.1-0.6l0-0.6l-0.2-0.6l0-0.6 l-0.1-0.6l0.2-0.6l-0.1-0.6l0.1-0.6l-0.1-0.6l0.2-0.5l0.5-0.2l0.6,0.1l0.6,0l0.6-0.1l0.6,0l0.6,0.1l0.6,0l0.4,0.2l0.2,0.4l0.1,0.6 l-0.2,0.6L168,15l0.1,0.6l-0.2,0.6l0.2,0.6l-0.3,0.6l0.1,0.6l0.1,0.6l-0.2,0.6l0.1,0.6l0.1,0.6l-0.3,0.6l0,0.6l0,0.6l0.2,0.6 l0,0.6l-0.1,0.6l0.1,0.6l0,0.6l0.1,0.6l-0.1,0.7l0.4,0.5l0.2,0.6l0.4,0.5l0.3,0.6l0.5,0.4l0.5,0.4l0.6,0.2l0.6,0.1l0.6,0.2 l0.6,0.3l0.6-0.2l0.6,0.1l0.6-0.2l0.6,0.1l0.6-0.1l0.6-0.2l0.6-0.1l0.6-0.2l0.5-0.4l0.4-0.4l0.5-0.4l0.4-0.5l0.2-0.6l0.2-0.6 L180,26l0-0.6l0-0.6l0-0.6l0.2-0.6l-0.1-0.6l-0.1-0.6l-0.1-0.6l0.2-0.6l-0.1-0.6l0-0.6l0-0.6l0-0.6l0.2-0.6l-0.2-0.6l0.1-0.6 l0-0.6l-0.2-0.6l0.2-0.6l-0.2-0.6l0.2-0.6L180.1,13.2z"></path> </g> <g> <path fill="#231815" d="M201.4,26.8l-0.6-0.1l-0.7,0l-0.7,0l0,0.6l0.1,0.6l-0.1,0.6l0,0.6l-0.1,0.6l0,0.6l-0.1,0.6l0.2,0.6 l-0.1,0.6l0,0.6l0.2,0.6l-0.1,0.6l0,0.6l-0.1,0.5l-0.5,0.2l-0.6-0.2l-0.6,0l-0.6,0.2l-0.6,0l-0.6-0.3l-0.6,0.1l-0.5-0.1l-0.2-0.5 l0.2-0.6l-0.3-0.6l0.3-0.6l-0.2-0.6l0.1-0.6l0-0.6l0-0.6l0.2-0.6l-0.1-0.6l0.1-0.6l0-0.6l-0.2-0.6l0.1-0.6l-0.1-0.6l0-0.6l0-0.6 l0.1-0.6l-0.1-0.6l0-0.6l0-0.6l0-0.6l0.1-0.6l0.1-0.6l0-0.6l0-0.6l-0.2-0.6l0-0.6l0-0.6l0.1-0.6l0-0.6l0-0.6l0-0.6l-0.1-0.6 l0.1-0.6l-0.1-0.6l0.3-0.4l0.4-0.4l0.6,0.1l0.6,0.1l0.6-0.2l0.6,0l0.6,0.1l0.6,0l0.6,0.1l0.6-0.1l0.6,0.1l0.6-0.2l0.6,0.1l0.6-0.2 l0.6,0.1l0.6,0.1l0.6-0.2l0.6,0.1h0.6l0.6-0.1l0.6,0.1l0.6,0l0.6,0l0.6,0l0.6,0.1l0.6,0l0.6,0.1l0.5,0.3l0.6,0.2l0.6,0.2l0.5,0.3 l0.4,0.5l0.5,0.3l0.3,0.5l0.5,0.4l0.2,0.6l0.4,0.5l0,0.6l0.2,0.6l0.1,0.6l0,0.6l0.1,0.6l-0.1,0.6l0.1,0.6l-0.3,0.6l0,0.6l-0.2,0.6 l-0.4,0.5l-0.2,0.6l-0.2,0.6l-0.6,0.3l-0.4,0.4l-0.4,0.4l-0.5,0.3l-0.5,0.3l-0.5,0.4l-0.6,0.1l-0.6,0.2l-0.6,0l-0.6,0.1l-0.6-0.1 l-0.6,0.2l-0.8-0.1l0.2,0.5l0.5,0.3l0.2,0.5l0.3,0.5l0.3,0.4l0.4,0.5l0.6,0.3l0.5,0.5l0.6,0.2l0.6,0.2l0.7-0.2l0.7,0.1l0.7-0.1 l0.7,0.2l0.7-0.2l0.4,0.3l0.1,0.4l0.1,0.6l-0.1,0.6l0.1,0.6l0.1,0.6l0,0.6l-0.2,0.4L214,35l-0.6-0.1l-0.6,0.1l-0.6-0.1l-0.6,0 l-0.6,0l-0.6,0.2l-0.6,0l-0.6-0.2l-0.6-0.1l-0.6-0.1l-0.6-0.2l-0.5-0.4l-0.5-0.3l-0.4-0.5l-0.6-0.3l-0.3-0.6l-0.5-0.4l-0.2-0.6 l-0.5-0.4l-0.2-0.6l-0.3-0.5l-0.4-0.5l-0.3-0.5l-0.4-0.4l-0.2-0.5l-0.2-0.5l-0.3-0.5L201.4,26.8z M210.2,19.6l0.1-0.6l-0.2-0.6 l-0.4-0.5l-0.5-0.3l-0.6-0.1l-0.6-0.2h-0.6l-0.6-0.1l-0.6,0l-0.6-0.1l-0.6,0.2l-0.6-0.1l-0.6,0l-0.6,0.2l-0.6-0.1l-0.6,0l-0.6,0.1 l-0.6,0l-0.6-0.2l-0.7,0l0.2,0.6l0,0.6l-0.3,0.6l0.1,0.6l0.1,0.6l0,0.6l-0.2,0.6l0.2,0.5L200,22l0.6-0.2l0.6,0.1l0.6,0l0.6,0 l0.6,0.2l0.6-0.1l0.6,0.1l0.6,0l0.6-0.2l0.6,0.1l0.6-0.1l0.6,0l0.6,0l0.6,0l0.6-0.2l0.5-0.3l0.4-0.4l0.2-0.6L210.2,19.6z"></path> </g> <g> <path fill="#231815" d="M228.3,34.3l-0.1,0.4l-0.4,0.2l-0.6,0l-0.6-0.1l-0.6,0l-0.6-0.1l-0.6,0.1l-0.6,0l-0.5-0.1l-0.2-0.5l0-0.6 l0.1-0.6v-0.6l-0.1-0.6l0-0.6l0-0.6l-0.1-0.6l0.1-0.6l0-0.6l-0.1-0.6l0.1-0.6l0-0.6l-0.1-0.6l0.1-0.6l-0.1-0.6l0.1-0.6l-0.1-0.6 l-0.1-0.6l0-0.6l0.1-0.6l-0.1-0.6l-0.1-0.6l0.1-0.6l-0.1-0.6l0-0.6l0.3-0.4l0.4-0.2l0.6-0.1l0.6,0l0.6,0l0.6,0l0.6,0.1l0.6-0.1 l0.3,0.3l0.3,0.4l-0.1,0.6l0.1,0.6l-0.1,0.6l0,0.6l0.1,0.6l0,0.6l0.1,0.6l-0.1,0.6l0.1,0.6l0,0.6l-0.1,0.6l0,0.6l0,0.6l0.1,0.6 l-0.1,0.6l0,0.6l0,0.6l0.1,0.6v0.6l0,0.6l0,0.6l-0.1,0.6l0.1,0.6l-0.1,0.6L228.3,34.3z"></path> </g> </g> <polygon fill="#D94E41" points="226,11.7 227.2,12 228.1,12.9 228.5,14.1 228.1,15.3 227.2,16.2 226,16.5 224.8,16.2 223.9,15.3 223.5,14.1 223.9,12.9 224.8,11.9 "></polygon> <g> </g> <g> </g> <g> </g> <g> </g> <g> </g> <g> </g> <g> </g> <g> </g> <g> </g> <g> </g> <g> </g> <g> </g> <g> </g> <g> </g> <g> </g> </svg> 